<svg width="29" height="30" viewBox="0 0 29 30" fill="none" xmlns="http://www.w3.org/2000/svg">
<path fill-rule="evenodd" clip-rule="evenodd" d="M22.1714 11.166C22.1714 12.6545 22.5648 13.5319 23.4306 14.5429C24.0867 15.2877 24.2963 16.2439 24.2963 17.2812C24.2963 18.3173 23.9559 19.3009 23.2739 20.0994C22.3811 21.0568 21.1219 21.6679 19.8368 21.7742C17.9745 21.9329 16.111 22.0666 14.2229 22.0666C12.3335 22.0666 10.4712 21.9866 8.60894 21.7742C7.32266 21.6679 6.06348 21.0568 5.1718 20.0994C4.48979 19.3009 4.14819 18.3173 4.14819 17.2812C4.14819 16.2439 4.35904 15.2877 5.01396 14.5429C5.90681 13.5319 6.27432 12.6545 6.27432 11.166V10.6611C6.27432 8.66763 6.7714 7.36414 7.795 6.08811C9.31686 4.22717 11.7563 3.11108 14.1699 3.11108H14.2759C16.7412 3.11108 19.2596 4.28088 20.7555 6.2218C21.7261 7.47157 22.1714 8.72016 22.1714 10.6611V11.166ZM10.754 24.5165C10.754 23.9197 11.3018 23.6463 11.8083 23.5294C12.4007 23.404 16.011 23.404 16.6035 23.5294C17.11 23.6463 17.6578 23.9197 17.6578 24.5165C17.6283 25.0847 17.295 25.5884 16.8344 25.9083C16.2372 26.3739 15.5363 26.6687 14.8037 26.775C14.3985 26.8275 14.0003 26.8287 13.6093 26.775C12.8754 26.6687 12.1746 26.3739 11.5786 25.9072C11.1168 25.5884 10.7835 25.0847 10.754 24.5165Z" fill="currentColor"/>
</svg>
